<mxfile host="app.diagrams.net" modified="2023-09-15T08:46:19.032Z" agent="Mozilla/5.0 (Windows NT 10.0; Win64; x64) AppleWebKit/537.36 (KHTML, like Gecko) Chrome/116.0.0.0 Safari/537.36" etag="FpOLhnL7GeG_hUg6VAVO" version="21.7.5" type="device">
  <diagram name="Страница — 1" id="erfQ_pztHL2C_T48Y3Em">
    <mxGraphModel dx="1950" dy="1125" grid="1" gridSize="10" guides="1" tooltips="1" connect="1" arrows="1" fold="1" page="1" pageScale="1" pageWidth="827" pageHeight="1169" math="0" shadow="0">
      <root>
        <mxCell id="0" />
        <mxCell id="1" parent="0" />
        <mxCell id="ohpwL-vAPc3g7yH4jyU_-4" style="edgeStyle=orthogonalEdgeStyle;rounded=0;orthogonalLoop=1;jettySize=auto;html=1;exitX=0.5;exitY=1;exitDx=0;exitDy=0;entryX=0.5;entryY=0;entryDx=0;entryDy=0;endArrow=none;endFill=0;" edge="1" parent="1" source="ohpwL-vAPc3g7yH4jyU_-1" target="ohpwL-vAPc3g7yH4jyU_-5">
          <mxGeometry relative="1" as="geometry">
            <mxPoint x="360" y="140" as="targetPoint" />
          </mxGeometry>
        </mxCell>
        <mxCell id="ohpwL-vAPc3g7yH4jyU_-1" value="Начало" style="rounded=1;whiteSpace=wrap;html=1;arcSize=50;" vertex="1" parent="1">
          <mxGeometry x="300" width="120" height="60" as="geometry" />
        </mxCell>
        <mxCell id="ohpwL-vAPc3g7yH4jyU_-2" value="Конец" style="rounded=1;whiteSpace=wrap;html=1;arcSize=50;" vertex="1" parent="1">
          <mxGeometry x="300" y="960" width="120" height="60" as="geometry" />
        </mxCell>
        <mxCell id="ohpwL-vAPc3g7yH4jyU_-11" style="edgeStyle=orthogonalEdgeStyle;rounded=0;orthogonalLoop=1;jettySize=auto;html=1;exitX=0.5;exitY=1;exitDx=0;exitDy=0;entryX=0.5;entryY=0;entryDx=0;entryDy=0;endArrow=none;endFill=0;" edge="1" parent="1" source="ohpwL-vAPc3g7yH4jyU_-5" target="ohpwL-vAPc3g7yH4jyU_-9">
          <mxGeometry relative="1" as="geometry" />
        </mxCell>
        <mxCell id="ohpwL-vAPc3g7yH4jyU_-5" value="A1&lt;br&gt;&lt;br&gt;While (IsNotCorrect)" style="shape=loopLimit;whiteSpace=wrap;html=1;" vertex="1" parent="1">
          <mxGeometry x="300" y="240" width="120" height="60" as="geometry" />
        </mxCell>
        <mxCell id="ohpwL-vAPc3g7yH4jyU_-31" style="edgeStyle=orthogonalEdgeStyle;rounded=0;orthogonalLoop=1;jettySize=auto;html=1;exitX=0.5;exitY=0;exitDx=0;exitDy=0;entryX=0.5;entryY=0;entryDx=0;entryDy=0;endArrow=none;endFill=0;" edge="1" parent="1" source="ohpwL-vAPc3g7yH4jyU_-7" target="ohpwL-vAPc3g7yH4jyU_-29">
          <mxGeometry relative="1" as="geometry" />
        </mxCell>
        <mxCell id="ohpwL-vAPc3g7yH4jyU_-7" value="&lt;br&gt;&lt;br&gt;A1" style="shape=loopLimit;whiteSpace=wrap;html=1;direction=west;" vertex="1" parent="1">
          <mxGeometry x="300" y="570" width="120" height="50" as="geometry" />
        </mxCell>
        <mxCell id="ohpwL-vAPc3g7yH4jyU_-13" style="edgeStyle=orthogonalEdgeStyle;rounded=0;orthogonalLoop=1;jettySize=auto;html=1;exitX=0.5;exitY=1;exitDx=0;exitDy=0;entryX=0.5;entryY=0;entryDx=0;entryDy=0;endArrow=none;endFill=0;" edge="1" parent="1" source="ohpwL-vAPc3g7yH4jyU_-9" target="ohpwL-vAPc3g7yH4jyU_-12">
          <mxGeometry relative="1" as="geometry" />
        </mxCell>
        <mxCell id="ohpwL-vAPc3g7yH4jyU_-9" value="CountNum" style="shape=parallelogram;perimeter=parallelogramPerimeter;whiteSpace=wrap;html=1;fixedSize=1;" vertex="1" parent="1">
          <mxGeometry x="300" y="320" width="120" height="60" as="geometry" />
        </mxCell>
        <mxCell id="ohpwL-vAPc3g7yH4jyU_-10" value="Вывод &lt;br&gt;информации о задании&amp;nbsp;" style="shape=parallelogram;perimeter=parallelogramPerimeter;whiteSpace=wrap;html=1;fixedSize=1;" vertex="1" parent="1">
          <mxGeometry x="300" y="160" width="120" height="60" as="geometry" />
        </mxCell>
        <mxCell id="ohpwL-vAPc3g7yH4jyU_-22" style="edgeStyle=orthogonalEdgeStyle;rounded=0;orthogonalLoop=1;jettySize=auto;html=1;exitX=1;exitY=0.5;exitDx=0;exitDy=0;entryX=0.5;entryY=0;entryDx=0;entryDy=0;endArrow=none;endFill=0;" edge="1" parent="1" source="ohpwL-vAPc3g7yH4jyU_-12" target="ohpwL-vAPc3g7yH4jyU_-19">
          <mxGeometry relative="1" as="geometry" />
        </mxCell>
        <mxCell id="ohpwL-vAPc3g7yH4jyU_-24" style="edgeStyle=orthogonalEdgeStyle;rounded=0;orthogonalLoop=1;jettySize=auto;html=1;exitX=0.5;exitY=1;exitDx=0;exitDy=0;entryX=0.5;entryY=0;entryDx=0;entryDy=0;endArrow=none;endFill=0;" edge="1" parent="1" source="ohpwL-vAPc3g7yH4jyU_-12" target="ohpwL-vAPc3g7yH4jyU_-23">
          <mxGeometry relative="1" as="geometry" />
        </mxCell>
        <mxCell id="ohpwL-vAPc3g7yH4jyU_-12" value="" style="rhombus;whiteSpace=wrap;html=1;" vertex="1" parent="1">
          <mxGeometry x="300" y="400" width="120" height="60" as="geometry" />
        </mxCell>
        <mxCell id="ohpwL-vAPc3g7yH4jyU_-14" value="" style="strokeWidth=1;html=1;shape=mxgraph.flowchart.annotation_1;align=left;pointerEvents=1;direction=west;" vertex="1" parent="1">
          <mxGeometry x="200" y="405" width="50" height="50" as="geometry" />
        </mxCell>
        <mxCell id="ohpwL-vAPc3g7yH4jyU_-15" value="" style="endArrow=none;dashed=1;html=1;rounded=0;exitX=0;exitY=0.5;exitDx=0;exitDy=0;exitPerimeter=0;entryX=0;entryY=0.5;entryDx=0;entryDy=0;" edge="1" parent="1" source="ohpwL-vAPc3g7yH4jyU_-14" target="ohpwL-vAPc3g7yH4jyU_-12">
          <mxGeometry width="50" height="50" relative="1" as="geometry">
            <mxPoint x="350" y="360" as="sourcePoint" />
            <mxPoint x="400" y="310" as="targetPoint" />
          </mxGeometry>
        </mxCell>
        <mxCell id="ohpwL-vAPc3g7yH4jyU_-16" value="(CountNum &amp;gt; MinValue) And (CountNum &amp;lt; MaxValue)" style="text;html=1;strokeColor=none;fillColor=none;align=center;verticalAlign=middle;whiteSpace=wrap;rounded=0;" vertex="1" parent="1">
          <mxGeometry x="80" y="410" width="170" height="40" as="geometry" />
        </mxCell>
        <mxCell id="ohpwL-vAPc3g7yH4jyU_-17" value="IsNotCorrect := True;&lt;br&gt;CountNum := 0;&lt;br&gt;MultipliedNum := 2;" style="rounded=0;whiteSpace=wrap;html=1;" vertex="1" parent="1">
          <mxGeometry x="300" y="80" width="120" height="60" as="geometry" />
        </mxCell>
        <mxCell id="ohpwL-vAPc3g7yH4jyU_-28" style="edgeStyle=orthogonalEdgeStyle;rounded=0;orthogonalLoop=1;jettySize=auto;html=1;exitX=0.5;exitY=1;exitDx=0;exitDy=0;endArrow=classic;endFill=1;" edge="1" parent="1" source="ohpwL-vAPc3g7yH4jyU_-19">
          <mxGeometry relative="1" as="geometry">
            <mxPoint x="360" y="560" as="targetPoint" />
            <Array as="points">
              <mxPoint x="510" y="560" />
            </Array>
          </mxGeometry>
        </mxCell>
        <mxCell id="ohpwL-vAPc3g7yH4jyU_-19" value="IsNotCorrect := False" style="rounded=0;whiteSpace=wrap;html=1;" vertex="1" parent="1">
          <mxGeometry x="450" y="480" width="120" height="60" as="geometry" />
        </mxCell>
        <mxCell id="ohpwL-vAPc3g7yH4jyU_-27" style="edgeStyle=orthogonalEdgeStyle;rounded=0;orthogonalLoop=1;jettySize=auto;html=1;exitX=0.5;exitY=1;exitDx=0;exitDy=0;entryX=0.5;entryY=1;entryDx=0;entryDy=0;endArrow=none;endFill=0;" edge="1" parent="1" source="ohpwL-vAPc3g7yH4jyU_-23" target="ohpwL-vAPc3g7yH4jyU_-7">
          <mxGeometry relative="1" as="geometry" />
        </mxCell>
        <mxCell id="ohpwL-vAPc3g7yH4jyU_-23" value="&quot;Число должно находиться в заданном промежутке&quot;" style="shape=parallelogram;perimeter=parallelogramPerimeter;whiteSpace=wrap;html=1;fixedSize=1;" vertex="1" parent="1">
          <mxGeometry x="300" y="480" width="120" height="60" as="geometry" />
        </mxCell>
        <mxCell id="ohpwL-vAPc3g7yH4jyU_-25" value="Нет" style="text;html=1;strokeColor=none;fillColor=none;align=center;verticalAlign=middle;whiteSpace=wrap;rounded=0;" vertex="1" parent="1">
          <mxGeometry x="310" y="455" width="60" height="30" as="geometry" />
        </mxCell>
        <mxCell id="ohpwL-vAPc3g7yH4jyU_-26" value="Да" style="text;html=1;strokeColor=none;fillColor=none;align=center;verticalAlign=middle;whiteSpace=wrap;rounded=0;" vertex="1" parent="1">
          <mxGeometry x="410" y="405" width="60" height="30" as="geometry" />
        </mxCell>
        <mxCell id="ohpwL-vAPc3g7yH4jyU_-33" style="edgeStyle=orthogonalEdgeStyle;rounded=0;orthogonalLoop=1;jettySize=auto;html=1;exitX=0.5;exitY=1;exitDx=0;exitDy=0;entryX=0.5;entryY=0;entryDx=0;entryDy=0;endArrow=none;endFill=0;" edge="1" parent="1" source="ohpwL-vAPc3g7yH4jyU_-29" target="ohpwL-vAPc3g7yH4jyU_-32">
          <mxGeometry relative="1" as="geometry" />
        </mxCell>
        <mxCell id="ohpwL-vAPc3g7yH4jyU_-29" value="A2&lt;br&gt;&lt;br&gt;I := 2 to CountNum do" style="shape=loopLimit;whiteSpace=wrap;html=1;" vertex="1" parent="1">
          <mxGeometry x="300" y="640" width="120" height="60" as="geometry" />
        </mxCell>
        <mxCell id="ohpwL-vAPc3g7yH4jyU_-36" style="edgeStyle=orthogonalEdgeStyle;rounded=0;orthogonalLoop=1;jettySize=auto;html=1;exitX=0.5;exitY=0;exitDx=0;exitDy=0;entryX=0.5;entryY=0;entryDx=0;entryDy=0;endArrow=none;endFill=0;" edge="1" parent="1" source="ohpwL-vAPc3g7yH4jyU_-30" target="ohpwL-vAPc3g7yH4jyU_-35">
          <mxGeometry relative="1" as="geometry" />
        </mxCell>
        <mxCell id="ohpwL-vAPc3g7yH4jyU_-30" value="&lt;br&gt;&lt;br&gt;A2" style="shape=loopLimit;whiteSpace=wrap;html=1;direction=west;" vertex="1" parent="1">
          <mxGeometry x="300" y="800" width="120" height="60" as="geometry" />
        </mxCell>
        <mxCell id="ohpwL-vAPc3g7yH4jyU_-34" style="edgeStyle=orthogonalEdgeStyle;rounded=0;orthogonalLoop=1;jettySize=auto;html=1;exitX=0.5;exitY=1;exitDx=0;exitDy=0;entryX=0.5;entryY=1;entryDx=0;entryDy=0;endArrow=none;endFill=0;" edge="1" parent="1" source="ohpwL-vAPc3g7yH4jyU_-32" target="ohpwL-vAPc3g7yH4jyU_-30">
          <mxGeometry relative="1" as="geometry" />
        </mxCell>
        <mxCell id="ohpwL-vAPc3g7yH4jyU_-32" value="MultipliedNum := MultipliedNum * 2 * I;" style="rounded=0;whiteSpace=wrap;html=1;" vertex="1" parent="1">
          <mxGeometry x="300" y="720" width="120" height="60" as="geometry" />
        </mxCell>
        <mxCell id="ohpwL-vAPc3g7yH4jyU_-37" style="edgeStyle=orthogonalEdgeStyle;rounded=0;orthogonalLoop=1;jettySize=auto;html=1;exitX=0.5;exitY=1;exitDx=0;exitDy=0;entryX=0.5;entryY=0;entryDx=0;entryDy=0;endArrow=none;endFill=0;" edge="1" parent="1" source="ohpwL-vAPc3g7yH4jyU_-35" target="ohpwL-vAPc3g7yH4jyU_-2">
          <mxGeometry relative="1" as="geometry" />
        </mxCell>
        <mxCell id="ohpwL-vAPc3g7yH4jyU_-35" value="MultipliedNum" style="shape=parallelogram;perimeter=parallelogramPerimeter;whiteSpace=wrap;html=1;fixedSize=1;" vertex="1" parent="1">
          <mxGeometry x="300" y="880" width="120" height="60" as="geometry" />
        </mxCell>
      </root>
    </mxGraphModel>
  </diagram>
</mxfile>
